<?xml version="1.0" encoding="utf-8"?>
<!-- Generator: Adobe Illustrator 24.1.0, SVG Export Plug-In . SVG Version: 6.00 Build 0)  -->
<svg version="1.1" id="Layer_1" xmlns="http://www.w3.org/2000/svg" xmlns:xlink="http://www.w3.org/1999/xlink" x="0px" y="0px"
	 viewBox="0 0 146 185" style="enable-background:new 0 0 146 185;" xml:space="preserve">
<path d="M73.77,0.08L73,0L0,7.66v133.88L73,185l73-43.46V7.66L73.77,0.08z M136.45,136.11L73,173.88L9.55,136.11V81.23l63.18,37.63
	l0.11,6.82L29.49,99.87l-0.06,6.62l43.51,26.17l0.11,7l-43.5-25.89l-0.06,6.62L73,146.55l43.93-26.3v-6.65l-0.05,0.03v-2.27v-2.73
	V92l19.58-11.7V136.11z M136.4,73.19l-17.36,10.23l-8.01,4.72L72.81,65.4l-0.06,6.62l32.66,19.44l-0.29,0.17l-0.7,0.41l-4.64,2.74
	L72.81,78.72l-0.06,6.62l21.29,12.67l-5.02,3.36l-0.12,0.07l-16.08-9.48l-0.06,6.62l10.55,6.22l-10.75,6.46L9.69,73.87L72.64,36
	v0.01L136.4,73.19z M136.45,66.53L72.66,28.9v-0.01l-0.01,0l-0.01,0v0.01L9.55,66.49V16.26L73,9.61l63.45,6.66V66.53z"/>
</svg>
