<?xml version="1.0" encoding="UTF-8"?><!DOCTYPE svg PUBLIC "-//W3C//DTD SVG 1.1//EN" "http://www.w3.org/Graphics/SVG/1.1/DTD/svg11.dtd"><svg xmlns="http://www.w3.org/2000/svg" xmlns:xlink="http://www.w3.org/1999/xlink"><symbol id="icon-fullscreen" viewBox="0 0 20 20"><style>.st0{fill:#444545}</style><path class="st0" d="M0 0v6h3V3h3V0H3zM3 14H0v6h6v-3H3zM17 0h-3v3h3v3h3V0zM17 17h-3v3h6v-6h-3z"/></symbol><symbol id="icon-htmlacademy" viewBox="0 0 146 185"><path d="M73.77.08L73 0 0 7.66v133.88L73 185l73-43.46V7.66L73.77.08zm62.68 136.03L73 173.88 9.55 136.11V81.23l63.18 37.63.11 6.82-43.35-25.81-.06 6.62 43.51 26.17.11 7-43.5-25.89-.06 6.62L73 146.55l43.93-26.3v-6.65l-.05.03V92l19.58-11.7v55.81zm-.05-62.92l-17.36 10.23-8.01 4.72L72.81 65.4l-.06 6.62 32.66 19.44-.29.17-.7.41-4.64 2.74-26.97-16.06-.06 6.62 21.29 12.67-5.02 3.36-.12.07-16.08-9.48-.06 6.62 10.55 6.22-10.75 6.46L9.69 73.87 72.64 36v.01l63.76 37.18zm.05-6.66L72.66 28.9v-.01h-.02v.01L9.55 66.49V16.26L73 9.61l63.45 6.66v50.26z"/></symbol><symbol id="icon-replay" viewBox="0 0 16 20"><path d="M8 4V0L3 5l5 5V6c3.31 0 6 2.69 6 6s-2.69 6-6 6c-3.32 0-6-2.69-6-6H0c0 4.42 3.58 8 8 8s8-3.58 8-8-3.58-8-8-8z"/></symbol><symbol id="icon-subtitles" viewBox="0 0 32 20"><path d="M29 0H3C1.35 0 0 1.35 0 3v14c0 1.65 1.35 3 3 3h26c1.65 0 3-1.35 3-3V3c0-1.65-1.35-3-3-3zM14.4 15.85c-.54.11-1.1.16-1.68.16-.69 0-1.35-.11-1.98-.32-.62-.21-1.17-.56-1.65-1.04s-.85-1.1-1.13-1.87c-.28-.77-.42-1.7-.42-2.79 0-1.13.16-2.09.47-2.85.33-.76.73-1.37 1.24-1.84.5-.47 1.06-.8 1.68-1.01.62-.2 1.23-.31 1.85-.31.66 0 1.22.04 1.68.13.46.09.84.19 1.13.31l-.45 1.92c-.25-.12-.55-.21-.9-.26A9.04 9.04 0 0012.97 6c-.92 0-1.65.33-2.21.98-.56.65-.84 1.66-.84 3.03 0 .6.07 1.14.2 1.63s.33.91.6 1.26c.27.35.61.62 1.01.81.4.19.87.29 1.4.29.5 0 .91-.05 1.26-.15.34-.1.64-.23.89-.38l.46 1.84c-.34.25-.79.44-1.34.54zm8.7 0c-.54.11-1.11.16-1.68.16-.69 0-1.35-.11-1.98-.32a4.24 4.24 0 01-1.65-1.04c-.47-.48-.85-1.1-1.13-1.87-.28-.77-.42-1.7-.42-2.79 0-1.13.16-2.09.47-2.85.31-.77.72-1.38 1.22-1.85.5-.47 1.06-.8 1.68-1.01.62-.2 1.23-.31 1.85-.31.66 0 1.22.04 1.68.13.46.09.84.19 1.13.31l-.45 1.92c-.25-.12-.55-.21-.9-.26-.33-.04-.75-.07-1.25-.07-.91 0-1.65.33-2.21.98-.56.65-.84 1.66-.84 3.03 0 .6.07 1.14.2 1.63s.33.91.6 1.26c.27.35.61.62 1.01.81.4.19.87.29 1.4.29.5 0 .92-.05 1.26-.15.34-.1.64-.23.89-.38l.46 1.84c-.34.25-.79.44-1.34.54z"/></symbol></svg>